# xmcd
#
# Track frame offsets: 
#        150
#        16721
#        27534
#        42654
#        58938
#        83716
#        94868
#        108533
#        120625
#        167994
#
# Disc length: 2464 seconds
#
# Revision: 0
# Processed by: cddbd v1.5.2PL0 Copyright (c) Steve Scherf et al.
# Submitted via: ExactAudioCopyFreeDBPlugin 1.0
#
DISCID=84099e0a
DTITLE=Robbie Laws - Between the Lines
DYEAR=2013
DGENRE=Blues
TTITLE0=Mornin' Noon and Night
TTITLE1=That Woman Keepin' House with the Devil
TTITLE2=Grits 'n' Greens
TTITLE3=Shakin' What Your Mama Give Ya
TTITLE4=Sweet Little Angel
TTITLE5=Yazoo Slim Rides Again
TTITLE6=Gee Baby Ain't I Good to You
TTITLE7=Jimmy Reed
TTITLE8=Coffee Grounds and Eggshells
TTITLE9=Brother Can You Spare a Dime
EXTD=
EXTT0=
EXTT1=
EXTT2=
EXTT3=
EXTT4=
EXTT5=
EXTT6=
EXTT7=
EXTT8=
EXTT9=
PLAYORDER=
